<?xml version="1.0" encoding="utf-8"?>
<!-- Generator: Adobe Illustrator 18.1.1, SVG Export Plug-In . SVG Version: 6.00 Build 0)  -->
<!DOCTYPE svg PUBLIC "-//W3C//DTD SVG 1.1//EN" "http://www.w3.org/Graphics/SVG/1.1/DTD/svg11.dtd">
<svg version="1.1" id="Layer_1" xmlns="http://www.w3.org/2000/svg" xmlns:xlink="http://www.w3.org/1999/xlink" x="0px" y="0px"
	 width="127.5px" height="132.6px" viewBox="0 0 127.5 132.6" enable-background="new 0 0 127.5 132.6" xml:space="preserve">
<g>
	<g>
		<g>
			<rect x="91.2" y="37.5" fill="#FFFFFF" width="4.6" height="40.9"/>
		</g>
	</g>
	<g>
		<g>
			<path fill="#FFFFFF" d="M54.2,62.9h-3.1c-0.4,0-0.8,0.3-0.8,0.8v8.8c0,0.4,0.3,0.8,0.8,0.8h3.1c0.4,0,0.8-0.3,0.8-0.8v-8.8
				C54.9,63.2,54.6,62.9,54.2,62.9z"/>
		</g>
	</g>
	<g>
		<g>
			<path fill="#FFFFFF" d="M54.9,40.3h-4.6v12.2c0,0.4,0.3,0.8,0.8,0.8h3.1c0.4,0,0.8-0.3,0.8-0.8V40.3z"/>
		</g>
	</g>
	<g>
		<g>
			<rect x="46.2" y="37.5" fill="#FFFFFF" width="12.9" height="2.8"/>
		</g>
	</g>
	<g>
		<g>
			<rect x="87.1" y="37.5" fill="#FFFFFF" width="12.9" height="2.8"/>
		</g>
	</g>
	<g>
		<path fill="#FFFFFF" d="M46.2,40.3c0,0,4.1,0.3,4.1,4.2s0-4.2,0-4.2H46.2z"/>
	</g>
	<g>
		<path fill="#FFFFFF" d="M54.9,40.3c0,0,0,8.1,0,4.2s4.1-4.2,4.1-4.2H54.9z"/>
	</g>
	<g>
		<path fill="#FFFFFF" d="M87.1,40.3c0,0,4.1,0.3,4.1,4.2s0-4.2,0-4.2H87.1z"/>
	</g>
	<g>
		<path fill="#FFFFFF" d="M95.8,40.3c0,0,0,8.1,0,4.2s4.1-4.2,4.1-4.2H95.8z"/>
	</g>
	<g>
		<g>
			<rect x="87.1" y="75.6" fill="#FFFFFF" width="12.9" height="2.8"/>
		</g>
	</g>
	<g>
		<path fill="#FFFFFF" d="M91.2,75.6c0,0,0-8.1,0-4.2c0,3.9-4.1,4.2-4.1,4.2H91.2z"/>
	</g>
	<g>
		<path fill="#FFFFFF" d="M100,75.6c0,0-4.1-0.3-4.1-4.2c0-3.9,0,4.2,0,4.2H100z"/>
	</g>
	<g>
		<circle fill="#FFFFFF" cx="46.2" cy="38.9" r="1.4"/>
	</g>
	<g>
		<circle fill="#FFFFFF" cx="59" cy="38.9" r="1.4"/>
	</g>
	<g>
		<circle fill="#FFFFFF" cx="87.1" cy="38.9" r="1.4"/>
	</g>
	<g>
		<circle fill="#FFFFFF" cx="100" cy="38.9" r="1.4"/>
	</g>
	<g>
		<circle fill="#FFFFFF" cx="87.1" cy="77" r="1.4"/>
	</g>
	<g>
		<circle fill="#FFFFFF" cx="100" cy="77" r="1.4"/>
	</g>
	<g>
		<path fill="#FFFFFF" d="M70.3,56.6c1,0.9,2,1.7,2.9,2.6c0.4,0.4,1,0.7,1.6,0.7h16.5v-4.6H70.8C70,55.3,69.7,56.2,70.3,56.6z"/>
	</g>
	<g>
		<path fill="#FFFFFF" d="M70.8,80.7H34.5v-4.6h36.3V80.7z M75.4,73.3c0-9.7-7.9-17.6-17.6-17.6H47.5c-9.7,0-17.6,7.9-17.6,17.6
			v25.6h4.6V73.3c0-7.2,5.9-13,13-13h10.2c7.2,0,13,5.9,13,13v25.6h4.6V73.3z M25.7,96.1v2.8h12.9v-2.8H25.7z M66.7,96.1v2.8h12.9
			v-2.8H66.7z M29.9,96.1c0,0,0-8.1,0-4.2s-4.1,4.2-4.1,4.2H29.9z M38.6,96.1c0,0-4.1-0.3-4.1-4.2s0,4.2,0,4.2H38.6z M70.8,96.1
			c0,0,0-8.1,0-4.2s-4.1,4.2-4.1,4.2H70.8z M79.5,96.1c0,0-4.1-0.3-4.1-4.2s0,4.2,0,4.2H79.5z M25.7,96.1c-0.8,0-1.4,0.6-1.4,1.4
			s0.6,1.4,1.4,1.4s1.4-0.6,1.4-1.4S26.5,96.1,25.7,96.1z M38.6,96.1c-0.8,0-1.4,0.6-1.4,1.4s0.6,1.4,1.4,1.4c0.8,0,1.4-0.6,1.4-1.4
			S39.4,96.1,38.6,96.1z M66.7,96.1c-0.8,0-1.4,0.6-1.4,1.4s0.6,1.4,1.4,1.4c0.8,0,1.4-0.6,1.4-1.4S67.4,96.1,66.7,96.1z M79.5,96.1
			c-0.8,0-1.4,0.6-1.4,1.4s0.6,1.4,1.4,1.4c0.8,0,1.4-0.6,1.4-1.4S80.3,96.1,79.5,96.1z"/>
	</g>
	<g>
		<path fill="#FFFFFF" d="M77.4,115.9H23.1c-5.5,0-10-4.5-10-10v-50c0-2.7,1.1-5.4,3.1-7.2L43.3,23c1.9-1.8,4.3-2.7,6.9-2.7h53.2
			c5.5,0,10,4.5,10,10v49.6c0,2.7-1,5.2-2.9,7l-26,26.1C82.6,114.9,80.1,115.9,77.4,115.9z M50.2,24.8c-1.4,0-2.7,0.5-3.7,1.5
			L19.4,52.1c-1.1,1-1.7,2.4-1.7,3.9v50c0,3,2.4,5.4,5.4,5.4h54.3c1.4,0,2.8-0.6,3.8-1.6l26-26.1c1-1,1.6-2.4,1.6-3.8V30.2
			c0-3-2.4-5.4-5.4-5.4H50.2z"/>
	</g>
</g>
</svg>
